<svg width="243" height="17" viewBox="0 0 243 17" fill="none" xmlns="http://www.w3.org/2000/svg">
<path d="M9.6582 10.6504V16H5.01758V10.7148L0.269531 0.595703H5.59766L7.2627 5.44043C7.37728 5.76986 7.45605 6.05632 7.49902 6.2998C7.54915 6.54329 7.60286 6.79036 7.66016 7.04102H7.70312C7.79622 6.38932 7.90007 5.88444 8.01465 5.52637L9.6582 0.595703H14.5674L9.6582 10.6504ZM30.7451 8.25488C30.7451 9.80176 30.4121 11.1875 29.7461 12.4121C29.0801 13.6296 28.1491 14.5785 26.9531 15.2588C25.7572 15.932 24.418 16.2686 22.9355 16.2686C21.4889 16.2686 20.1712 15.9427 18.9824 15.291C17.8008 14.6322 16.8805 13.7119 16.2217 12.5303C15.5628 11.3415 15.2334 9.9987 15.2334 8.50195C15.2334 6.93359 15.5664 5.52279 16.2324 4.26953C16.8984 3.01628 17.833 2.04948 19.0361 1.36914C20.2393 0.681641 21.6071 0.337891 23.1396 0.337891C24.6149 0.337891 25.9326 0.667318 27.0928 1.32617C28.2601 1.97786 29.1589 2.91243 29.7891 4.12988C30.4264 5.34017 30.7451 6.71517 30.7451 8.25488ZM25.8252 8.38379C25.8252 7.11621 25.5817 6.11719 25.0947 5.38672C24.6077 4.65625 23.9417 4.29102 23.0967 4.29102C22.1729 4.29102 21.4531 4.64193 20.9375 5.34375C20.4219 6.04557 20.1641 7.03743 20.1641 8.31934C20.1641 9.57259 20.4183 10.5501 20.9268 11.252C21.4424 11.9538 22.1406 12.3047 23.0215 12.3047C23.5586 12.3047 24.042 12.1471 24.4717 11.832C24.9014 11.5169 25.2344 11.0658 25.4707 10.4785C25.707 9.89128 25.8252 9.19303 25.8252 8.38379ZM46.3643 8.96387C46.3643 11.4346 45.7985 13.2715 44.667 14.4746C43.5426 15.6706 41.806 16.2686 39.457 16.2686C37.2656 16.2686 35.6006 15.6706 34.4619 14.4746C33.3304 13.2715 32.7646 11.4632 32.7646 9.0498V0.595703H37.4268V9.22168C37.4268 10.21 37.6094 10.9727 37.9746 11.5098C38.347 12.0397 38.877 12.3047 39.5645 12.3047C40.2591 12.3047 40.7855 12.054 41.1436 11.5527C41.5088 11.0514 41.6914 10.3102 41.6914 9.3291V0.595703H46.3643V8.96387ZM57.2139 16L56.0645 12.6807C55.8424 12.029 55.5524 11.5169 55.1943 11.1445C54.8434 10.7721 54.4603 10.5859 54.0449 10.5859H53.8623V16H49.2217V0.595703H55.3877C57.5433 0.595703 59.1331 0.950195 60.1572 1.65918C61.1885 2.361 61.7041 3.41732 61.7041 4.82812C61.7041 5.88802 61.4033 6.77604 60.8018 7.49219C60.2074 8.20833 59.3193 8.72754 58.1377 9.0498V9.09277C58.7894 9.29329 59.3301 9.61914 59.7598 10.0703C60.1966 10.5215 60.5869 11.1911 60.9307 12.0791L62.4453 16H57.2139ZM56.7734 5.4834C56.7734 4.96777 56.6159 4.55957 56.3008 4.25879C55.9857 3.95801 55.4915 3.80762 54.8184 3.80762H53.8623V7.33105H54.7002C55.3232 7.33105 55.8245 7.1556 56.2041 6.80469C56.5837 6.45378 56.7734 6.01335 56.7734 5.4834ZM82.9521 5.67676C82.9521 6.72949 82.6836 7.66406 82.1465 8.48047C81.6165 9.29688 80.8574 9.93066 79.8691 10.3818C78.8809 10.8258 77.7314 11.0479 76.4209 11.0479H75.0029V16H70.3623V0.595703H76.6787C78.8486 0.595703 80.4349 1.00749 81.4375 1.83105C82.4473 2.65462 82.9521 3.93652 82.9521 5.67676ZM78.043 5.83789C78.043 5.20768 77.8604 4.73145 77.4951 4.40918C77.1299 4.08691 76.5928 3.92578 75.8838 3.92578H75.0029V7.72852H76.0449C77.377 7.72852 78.043 7.09831 78.043 5.83789ZM92.792 16L91.6426 12.6807C91.4206 12.029 91.1305 11.5169 90.7725 11.1445C90.4215 10.7721 90.0384 10.5859 89.623 10.5859H89.4404V16H84.7998V0.595703H90.9658C93.1214 0.595703 94.7113 0.950195 95.7354 1.65918C96.7666 2.361 97.2822 3.41732 97.2822 4.82812C97.2822 5.88802 96.9814 6.77604 96.3799 7.49219C95.7855 8.20833 94.8975 8.72754 93.7158 9.0498V9.09277C94.3675 9.29329 94.9082 9.61914 95.3379 10.0703C95.7747 10.5215 96.165 11.1911 96.5088 12.0791L98.0234 16H92.792ZM92.3516 5.4834C92.3516 4.96777 92.194 4.55957 91.8789 4.25879C91.5638 3.95801 91.0697 3.80762 90.3965 3.80762H89.4404V7.33105H90.2783C90.9014 7.33105 91.4027 7.1556 91.7822 6.80469C92.1618 6.45378 92.3516 6.01335 92.3516 5.4834ZM99.8174 16V0.595703H104.458V16H99.8174ZM118.949 15.5811C117.674 16.0394 116.203 16.2686 114.534 16.2686C112.894 16.2686 111.48 15.957 110.291 15.334C109.102 14.7038 108.193 13.8122 107.562 12.6592C106.939 11.499 106.628 10.1634 106.628 8.65234C106.628 7.02669 106.979 5.58008 107.681 4.3125C108.382 3.04492 109.374 2.06738 110.656 1.37988C111.938 0.685221 113.413 0.337891 115.082 0.337891C116.414 0.337891 117.703 0.499023 118.949 0.821289V5.10742C118.52 4.84961 118.007 4.64909 117.413 4.50586C116.819 4.36263 116.217 4.29102 115.608 4.29102C114.348 4.29102 113.353 4.65267 112.622 5.37598C111.899 6.09928 111.537 7.0804 111.537 8.31934C111.537 9.55111 111.899 10.5251 112.622 11.2412C113.353 11.9502 114.326 12.3047 115.544 12.3047C116.668 12.3047 117.803 12.0182 118.949 11.4453V15.5811ZM121.345 16V0.595703H130.938V4.22656H125.985V6.47168H130.637V10.1025H125.985V12.3691H131.292V16H121.345Z" fill="#FF6000"/>
<path d="M152.766 11.2734C152.766 12.7845 152.236 13.9518 151.176 14.7754C150.116 15.5918 148.601 16 146.632 16H139.606V0.595703H146.148C150.238 0.595703 152.282 1.83822 152.282 4.32324C152.282 4.86035 152.153 5.35449 151.896 5.80566C151.638 6.24967 151.244 6.63997 150.714 6.97656C150.191 7.31315 149.615 7.54232 148.984 7.66406V7.70703C149.715 7.79297 150.37 8.01139 150.95 8.3623C151.53 8.70605 151.978 9.13932 152.293 9.66211C152.608 10.1777 152.766 10.7148 152.766 11.2734ZM147.352 5.12891C147.352 4.17643 146.603 3.7002 145.106 3.7002H144.247V6.61133H145.59C146.105 6.61133 146.528 6.47526 146.857 6.20312C147.187 5.92383 147.352 5.56576 147.352 5.12891ZM147.835 11.252C147.835 10.8079 147.674 10.4427 147.352 10.1562C147.029 9.86979 146.603 9.72656 146.073 9.72656H144.247V12.874H145.794C146.424 12.874 146.922 12.7308 147.287 12.4443C147.652 12.1507 147.835 11.7533 147.835 11.252ZM169.47 8.25488C169.47 9.80176 169.137 11.1875 168.471 12.4121C167.805 13.6296 166.874 14.5785 165.678 15.2588C164.482 15.932 163.143 16.2686 161.66 16.2686C160.214 16.2686 158.896 15.9427 157.707 15.291C156.525 14.6322 155.605 13.7119 154.946 12.5303C154.287 11.3415 153.958 9.9987 153.958 8.50195C153.958 6.93359 154.291 5.52279 154.957 4.26953C155.623 3.01628 156.558 2.04948 157.761 1.36914C158.964 0.681641 160.332 0.337891 161.864 0.337891C163.34 0.337891 164.657 0.667318 165.817 1.32617C166.985 1.97786 167.883 2.91243 168.514 4.12988C169.151 5.34017 169.47 6.71517 169.47 8.25488ZM164.55 8.38379C164.55 7.11621 164.306 6.11719 163.819 5.38672C163.332 4.65625 162.666 4.29102 161.821 4.29102C160.897 4.29102 160.178 4.64193 159.662 5.34375C159.146 6.04557 158.889 7.03743 158.889 8.31934C158.889 9.57259 159.143 10.5501 159.651 11.252C160.167 11.9538 160.865 12.3047 161.746 12.3047C162.283 12.3047 162.767 12.1471 163.196 11.832C163.626 11.5169 163.959 11.0658 164.195 10.4785C164.432 9.89128 164.55 9.19303 164.55 8.38379ZM186.313 8.25488C186.313 9.80176 185.98 11.1875 185.314 12.4121C184.648 13.6296 183.717 14.5785 182.521 15.2588C181.326 15.932 179.986 16.2686 178.504 16.2686C177.057 16.2686 175.74 15.9427 174.551 15.291C173.369 14.6322 172.449 13.7119 171.79 12.5303C171.131 11.3415 170.802 9.9987 170.802 8.50195C170.802 6.93359 171.135 5.52279 171.801 4.26953C172.467 3.01628 173.401 2.04948 174.604 1.36914C175.808 0.681641 177.175 0.337891 178.708 0.337891C180.183 0.337891 181.501 0.667318 182.661 1.32617C183.828 1.97786 184.727 2.91243 185.357 4.12988C185.995 5.34017 186.313 6.71517 186.313 8.25488ZM181.394 8.38379C181.394 7.11621 181.15 6.11719 180.663 5.38672C180.176 4.65625 179.51 4.29102 178.665 4.29102C177.741 4.29102 177.021 4.64193 176.506 5.34375C175.99 6.04557 175.732 7.03743 175.732 8.31934C175.732 9.57259 175.987 10.5501 176.495 11.252C177.011 11.9538 177.709 12.3047 178.59 12.3047C179.127 12.3047 179.61 12.1471 180.04 11.832C180.47 11.5169 180.803 11.0658 181.039 10.4785C181.275 9.89128 181.394 9.19303 181.394 8.38379ZM197.023 16L193.607 9.49023C193.378 8.97461 193.242 8.62012 193.199 8.42676H193.146V16H188.505V0.595703H193.146V7.92188H193.199C193.335 7.53516 193.489 7.17708 193.661 6.84766L196.733 0.595703H202.233L197.861 7.94336L202.652 16H197.023ZM203.694 16V0.595703H208.335V16H203.694ZM222.128 16L216.692 8.56641C216.263 7.97917 215.912 7.44922 215.64 6.97656H215.597C215.64 7.73568 215.661 8.58789 215.661 9.5332V16H211.364V0.595703H215.747L220.957 7.66406C221.021 7.75716 221.1 7.86816 221.193 7.99707C221.286 8.12598 221.38 8.25846 221.473 8.39453C221.566 8.5306 221.652 8.66309 221.73 8.79199C221.816 8.9209 221.881 9.03548 221.924 9.13574H221.967C221.924 8.82064 221.902 8.27637 221.902 7.50293V0.595703H226.199V16H222.128ZM242.731 14.9902C242.151 15.3197 241.285 15.6169 240.132 15.8818C238.979 16.1396 237.88 16.2686 236.834 16.2686C234.134 16.2686 232.05 15.5954 230.582 14.249C229.114 12.8955 228.38 11.0013 228.38 8.56641C228.38 6.93359 228.749 5.4834 229.486 4.21582C230.231 2.94824 231.277 1.98503 232.623 1.32617C233.969 0.667318 235.556 0.337891 237.382 0.337891C238.721 0.337891 240.15 0.527669 241.668 0.907227V4.95703C240.959 4.63477 240.279 4.41276 239.627 4.29102C238.975 4.16211 238.263 4.09766 237.489 4.09766C236.215 4.09766 235.198 4.48079 234.438 5.24707C233.687 6.01335 233.311 7.06608 233.311 8.40527C233.311 9.68717 233.626 10.6898 234.256 11.4131C234.893 12.1364 235.781 12.498 236.92 12.498C237.45 12.498 237.84 12.4694 238.091 12.4121V10.21H235.137V6.69727H242.731V14.9902Z" fill="#0090FF"/>
</svg>
