<svg width="50" height="48" viewBox="0 0 50 48" fill="none" xmlns="http://www.w3.org/2000/svg">
<path d="M13.3937 10.8093C-0.277363 24.4133 0.000423632 24.1075 0.000423632 25.1338C0.000423632 26.0291 0.456787 26.6842 1.34967 27.0554C1.6473 27.1864 2.83781 27.2519 4.06801 27.2083L6.25062 27.1428L6.34983 36.3576L6.44904 45.5943L7.10382 46.293L7.73876 47.0136L24.2274 47.0791C33.2951 47.1228 41.0335 47.101 41.4105 47.0136C41.8073 46.9481 42.3232 46.6424 42.5811 46.3586L43.0573 45.8345V36.4013V26.9899L44.8233 27.1428C47.0059 27.3393 48.0376 27.1646 48.6924 26.4877C49.248 25.9199 49.3671 25.0028 48.9901 24.1512C48.6726 23.4306 25.1798 0.0878143 24.6837 0.000469208C24.406 -0.0432014 21.2313 2.99202 13.3937 10.8093ZM26.8465 16.4431C29.049 16.9453 30.418 17.7532 31.7276 19.3036C34.2674 22.2733 35.0412 25.8108 34.0094 29.6758C33.2158 32.6455 28.8109 39.2181 26.1917 41.3362C25.4576 41.9258 25.0607 42.1005 24.406 42.1005C23.652 42.1005 23.4734 41.9695 22.3424 40.7248C20.3979 38.6067 16.9057 33.6281 16.1716 31.9467C15.2192 29.8068 14.7628 26.8371 15.0604 24.7408C15.9136 18.9542 21.3106 15.1547 26.8465 16.4431Z" fill="#0090FF"/>
<path d="M22.6784 20.57C20.0593 21.509 18.2338 24.5442 18.5116 27.4921C19.0473 33.0603 25.0793 35.4841 28.7103 31.5754C29.9207 30.2652 30.4564 28.8241 30.4366 26.8151C30.4366 25.4831 30.3374 24.9591 29.9009 24.042C29.2461 22.6663 28.2143 21.5308 27.0436 20.8976C25.9325 20.308 23.8491 20.1551 22.6784 20.57Z" fill="#FF6000"/>
</svg>
